# xmcd
#
# Track frame offsets:
#	150
#	17432
#	36360
#	53932
#	71170
#	88270
#	106747
#	124465
#	149125
#	166165
#	185067
#
# Disc length: 2686 seconds
#
# Revision: 1
# Processed by: cddbd v1.5.2PL0 Copyright (c) Steve Scherf et al.
# Submitted via: audiograbber 1.83.01
#
DISCID=a40a7c0b
DTITLE=Pat O´Bryan - Of Trains And Angels
DYEAR=2003
DGENRE=Country
TTITLE0=She said angels
TTITLE1=That´s a lot like heroins
TTITLE2=When lovers lie
TTITLE3=When you love somebody
TTITLE4=Emerald eyes
TTITLE5=Doin´ me right
TTITLE6=Baby´s cookin´
TTITLE7=Blinded the blues
TTITLE8=Southbound train
TTITLE9=I can´t get you off my mind
TTITLE10=Train soon gone
EXTD=
EXTT0=
EXTT1=
EXTT2=
EXTT3=
EXTT4=
EXTT5=
EXTT6=
EXTT7=
EXTT8=
EXTT9=
EXTT10=
PLAYORDER=
